<svg width="133" height="24" viewBox="0 0 133 24" fill="none" xmlns="http://www.w3.org/2000/svg">
<path d="M21.5639 19.3102C19.4341 15.6682 15.7304 13.8472 12.0267 13.8472C8.32299 13.8472 4.61928 15.6682 2.4895 19.3102C4.68949 22.1614 8.1416 23.9999 12.0267 23.9999C15.9118 23.9999 19.3668 22.1614 21.5639 19.3102Z" fill="#722380"/>
<path d="M3.47552 9.5107C6.07338 8.0749 9.03108 7.31615 12.0297 7.31615C15.0284 7.31615 17.9832 8.0749 20.584 9.5107C21.8449 10.2082 23.0092 11.0632 24.0595 12.0467C24.0595 12.0321 24.0595 12.0146 24.0595 12C24.0595 5.37257 18.6736 0 12.0297 0C5.38589 0 0 5.37257 0 12C0 12.0146 0 12.0321 0 12.0467C1.05026 11.0632 2.21462 10.2082 3.47552 9.5107Z" fill="#722380"/>
<path d="M39.0409 4.5122L33.1226 19.4101H35.6882L37.1247 16.0569C38.1779 15.6951 39.31 15.4996 40.4861 15.4996C41.5949 15.4996 42.6627 15.6747 43.6632 15.9957L45.126 19.4071H47.8467L41.9401 4.50928H39.0409V4.5122ZM42.6042 13.2875C41.9137 13.1737 41.2058 13.1124 40.4861 13.1124C39.6991 13.1124 38.9326 13.1824 38.1866 13.3196L38.2744 13.0891L40.4071 7.56473L42.531 13.0891L42.6042 13.2875Z" fill="#722380"/>
<path d="M53.6745 11.3177L60.4646 4.51221H63.8494L56.6907 11.6212L64.2268 19.3692H60.801L53.6745 12.1756V19.3692H51.0327V4.51221H53.6745V11.3177Z" fill="#722380"/>
<path d="M70.2448 11.3177L77.0349 4.51221H80.4197L73.261 11.6212L80.7971 19.3692H77.3714L70.2448 12.1756V19.3692H67.603V4.51221H70.2448V11.3177Z" fill="#722380"/>
<path d="M90.0768 4.354C91.5922 4.354 92.9409 4.65167 94.1228 5.24117C95.3047 5.83358 96.2321 6.69739 96.9108 7.82969C97.5895 8.96198 97.926 10.2781 97.926 11.7752C97.926 13.2956 97.5954 14.641 96.9313 15.817C96.2672 16.9902 95.334 17.9036 94.1316 18.5515C92.9292 19.1993 91.5483 19.5233 89.992 19.5233C88.9651 19.5233 87.9909 19.3657 87.0694 19.0476C86.1478 18.7295 85.3199 18.2684 84.5914 17.6585C83.8601 17.0486 83.2808 16.2548 82.8508 15.2801C82.4207 14.3054 82.2072 13.2023 82.2072 11.9766C82.2072 10.4503 82.5436 9.1079 83.2135 7.94642C83.8835 6.78494 84.8138 5.89779 86.0016 5.28203C87.1864 4.66335 88.5468 4.354 90.0768 4.354ZM91.4547 6.9542C90.9691 6.83163 90.4747 6.77035 89.9715 6.77035C89.4683 6.77035 88.9797 6.83163 88.5029 6.9542C88.0289 7.07677 87.5726 7.26938 87.1337 7.5291C86.6978 7.79175 86.3146 8.11276 85.9869 8.49506C85.6593 8.87735 85.396 9.35012 85.2 9.91043C85.0039 10.4707 84.9074 11.0894 84.9074 11.7665C84.9074 13.3774 85.4077 14.6702 86.4053 15.6449C87.4058 16.6196 88.6521 17.1099 90.147 17.1099C90.7701 17.1099 91.3728 17.0077 91.955 16.8063C92.5372 16.605 93.0784 16.3044 93.5757 15.9075C94.0731 15.5106 94.4709 14.9707 94.7693 14.2879C95.0707 13.605 95.2199 12.8287 95.2199 11.9562C95.2199 11.2441 95.1145 10.5962 94.9039 10.0067C94.6933 9.41724 94.4153 8.92697 94.0701 8.53884C93.7249 8.14779 93.3212 7.81801 92.8648 7.54661C92.4114 7.27229 91.9404 7.07385 91.4547 6.9542Z" fill="#722380"/>
<path d="M113.92 8.76708C113.92 9.23984 113.861 9.69217 113.747 10.1212C113.633 10.5501 113.449 10.9616 113.203 11.3614C112.954 11.7583 112.615 12.1143 112.188 12.4266C111.758 12.7418 111.249 12.984 110.664 13.1591L115.16 19.3692H111.723L107.551 13.6085H105.026V19.3692H102.385V4.51221H108.724C109.037 4.51221 109.327 4.52096 109.59 4.53847C109.853 4.55598 110.169 4.59683 110.544 4.66395C110.918 4.73108 111.249 4.81863 111.538 4.92952C111.828 5.04042 112.129 5.20385 112.44 5.4198C112.75 5.63575 113.01 5.88964 113.215 6.17855C113.42 6.46746 113.589 6.83516 113.724 7.27583C113.855 7.71941 113.92 8.21844 113.92 8.76708ZM105.023 6.92855V11.1834H107.454C107.873 11.1834 108.244 11.1688 108.566 11.1426C108.888 11.1163 109.219 11.0579 109.561 10.9704C109.903 10.8828 110.184 10.7632 110.403 10.6085C110.623 10.4568 110.804 10.2437 110.948 9.97232C111.091 9.70092 111.161 9.37991 111.161 9.00929C111.161 7.6231 110.087 6.92855 107.943 6.92855H105.023Z" fill="#722380"/>
<path d="M124.528 4.5122C125.464 4.5122 126.327 4.58516 127.117 4.73107C127.907 4.87698 128.588 5.07543 129.162 5.3264C129.735 5.57738 130.244 5.88088 130.692 6.23691C131.139 6.59294 131.505 6.97232 131.792 7.37796C132.078 7.7836 132.315 8.22135 132.5 8.69411C132.684 9.16687 132.813 9.6338 132.889 10.089C132.962 10.5443 133 11.0171 133 11.5044C133 12.1464 132.947 12.7651 132.842 13.3604C132.737 13.9558 132.552 14.5628 132.286 15.1785C132.02 15.7943 131.681 16.3488 131.265 16.842C130.85 17.3322 130.308 17.7758 129.641 18.1698C128.974 18.5638 128.211 18.8556 127.351 19.0424C126.912 19.1387 126.42 19.2145 125.882 19.2671C125.344 19.3196 124.902 19.3488 124.557 19.3546C124.212 19.3604 123.726 19.3663 123.106 19.3663H119.244V4.50928H124.528V4.5122ZM124.601 6.93729H121.886V16.9412H123.805C124.288 16.9412 124.686 16.9353 124.999 16.9208C125.312 16.9062 125.724 16.8595 126.236 16.7748C126.745 16.6902 127.181 16.5735 127.541 16.4246C127.901 16.2758 128.275 16.0482 128.661 15.7447C129.05 15.4412 129.372 15.0735 129.63 14.6416C130.104 13.8478 130.344 12.9169 130.344 11.8488C130.344 11.2359 130.259 10.6698 130.086 10.1562C129.916 9.63963 129.688 9.20772 129.404 8.85461C129.121 8.5015 128.79 8.19507 128.41 7.92951C128.029 7.66395 127.643 7.45967 127.251 7.31376C126.859 7.16784 126.458 7.0657 126.046 7.01025C125.698 6.96356 125.215 6.93729 124.601 6.93729Z" fill="#722380"/>
</svg>
